<svg width="16" height="12" viewBox="0 0 16 12" fill="none" xmlns="http://www.w3.org/2000/svg">
<path d="M15.7284 5.07936L10.9602 0.311172C10.8719 0.193439 10.7597 0.106978 10.6236 0.051791C10.4874 -0.0033963 10.3458 -0.0144338 10.1986 0.0186786C10.0515 0.051791 9.92636 0.119855 9.82335 0.222872C9.72033 0.325888 9.65227 0.450979 9.61915 0.598146C9.58604 0.745312 9.59708 0.886959 9.65227 1.02309C9.70745 1.15922 9.79391 1.27143 9.91165 1.35973L13.4105 4.85861H0.662248C0.470932 4.88068 0.312728 4.96346 0.187637 5.10695C0.0625457 5.25044 0 5.416 0 5.60364C0 5.79127 0.0625457 5.95684 0.187637 6.10032C0.312728 6.24381 0.470932 6.32659 0.662248 6.34867H13.4105L9.90061 9.85858C9.78288 10.0057 9.72953 10.175 9.74057 10.3663C9.7516 10.5576 9.82519 10.7195 9.96131 10.852C10.0974 10.9844 10.2612 11.0561 10.4525 11.0672C10.6438 11.0782 10.813 11.0249 10.9602 10.9071L15.7394 6.13895C15.8866 5.99179 15.9583 5.81519 15.9547 5.60916C15.951 5.40312 15.8756 5.22652 15.7284 5.07936Z" fill="#FDFDFD"/>
</svg>
