<svg width="75" height="76" viewBox="0 0 75 76" fill="none" xmlns="http://www.w3.org/2000/svg">
<path d="M37.4095 75.0145C37.3098 75.0145 37.21 74.9646 37.1103 74.8649C37.0105 74.7651 36.9606 74.6654 36.9606 74.5656L35.6139 44.4883L19.3033 69.852C19.1537 70.0016 18.9791 70.0266 18.7796 69.9268C18.5801 69.8271 18.5052 69.6525 18.5551 69.4031L32.3967 42.6179L5.61143 56.4594C5.36203 56.5093 5.18745 56.4345 5.0877 56.2349C4.98794 56.0354 5.01288 55.8608 5.16252 55.7112L30.5262 39.4007L0.448914 38.0539C0.349156 38.0539 0.249397 38.004 0.149638 37.9043C0.0498794 37.8045 0 37.7048 0 37.605C0 37.5052 0.0498794 37.4055 0.149638 37.3057C0.249397 37.206 0.349156 37.1561 0.448914 37.1561L30.5262 35.7345L5.16252 19.4988C5.06276 19.4489 5.00041 19.3616 4.97547 19.2369C4.95053 19.1122 4.97547 18.9875 5.05029 18.8628C5.12511 18.7381 5.22486 18.6758 5.34956 18.6758C5.47426 18.6758 5.58649 18.7007 5.68625 18.7506L32.3967 32.5921L18.5551 5.8069C18.5052 5.5575 18.5801 5.38292 18.7796 5.28316C18.9791 5.1834 19.1537 5.20834 19.3033 5.35799L35.6139 30.7216L36.9606 0.644386C36.9606 0.544624 37.0105 0.444862 37.1103 0.345108C37.21 0.245346 37.3098 0.195465 37.4095 0.195465C37.5093 0.195465 37.609 0.245346 37.7088 0.345108C37.8086 0.444862 37.8584 0.544624 37.8584 0.644386L39.28 30.7216L55.5157 5.35799C55.6654 5.20834 55.84 5.1834 56.0395 5.28316C56.239 5.38292 56.3138 5.5575 56.2639 5.8069L42.4224 32.5921L69.2076 18.7506C69.457 18.7007 69.6316 18.7755 69.7314 18.9751C69.8311 19.1746 69.8062 19.3491 69.6565 19.4988L44.2929 35.7345L74.3701 37.1561C74.4699 37.1561 74.5697 37.206 74.6694 37.3057C74.7692 37.4055 74.8191 37.5052 74.8191 37.605C74.8191 37.7048 74.7692 37.8045 74.6694 37.9043C74.5697 38.004 74.4699 38.0539 74.3701 38.0539L44.2929 39.4007L69.6565 55.7112C69.8062 55.8608 69.8311 56.0354 69.7314 56.2349C69.6316 56.4345 69.457 56.5093 69.2076 56.4594L42.4224 42.6179L56.2639 69.2535C56.3138 69.3532 56.3387 69.453 56.3387 69.5527C56.3387 69.6525 56.2889 69.7523 56.1891 69.852C56.0894 69.9518 55.9771 70.0016 55.8524 70.0016C55.7277 70.0016 55.6155 69.9518 55.5157 69.852L39.2052 44.4883L37.8584 74.5656C37.8584 74.6654 37.8086 74.7651 37.7088 74.8649C37.609 74.9646 37.5093 75.0145 37.4095 75.0145ZM35.988 42.5431C35.988 42.5431 36.0129 42.5431 36.0628 42.5431C36.3122 42.5929 36.4369 42.7426 36.4369 42.992L37.4095 64.6147L38.3822 42.992C38.3822 42.7925 38.4944 42.6553 38.7189 42.5805C38.9433 42.5056 39.1054 42.568 39.2052 42.7675L50.9518 61.0234L41.0008 41.7949C40.9011 41.5953 40.926 41.4208 41.0757 41.2711C41.2253 41.1215 41.3999 41.0966 41.5994 41.1963L60.8279 51.1472L42.572 39.4007C42.3725 39.3009 42.3102 39.1388 42.385 38.9143C42.4598 38.6899 42.597 38.5776 42.7965 38.5776L64.4192 37.605L42.7965 36.6324C42.597 36.6324 42.4598 36.5201 42.385 36.2957C42.3102 36.0712 42.3725 35.9091 42.572 35.8093L60.8279 24.0627L41.5994 34.0137C41.3999 34.1134 41.2253 34.0885 41.0757 33.9389C40.926 33.7892 40.9011 33.6146 41.0008 33.4151L50.9518 14.1866L39.2052 32.4425C39.1054 32.642 38.9433 32.7043 38.7189 32.6295C38.4944 32.5547 38.3822 32.4175 38.3822 32.218L37.4095 10.5953L36.4369 32.218C36.4369 32.4175 36.3247 32.5547 36.1002 32.6295C35.8757 32.7043 35.7136 32.642 35.6139 32.4425L23.8673 14.1866L33.8182 33.4151C33.918 33.6146 33.893 33.7892 33.7434 33.9389C33.5938 34.0885 33.4192 34.1134 33.2197 34.0137L13.9912 24.0627L32.247 35.8093C32.4465 35.9091 32.5089 36.0712 32.4341 36.2957C32.3592 36.5201 32.2221 36.6324 32.0226 36.6324L10.3998 37.605L32.0226 38.5776C32.2221 38.5776 32.3592 38.6899 32.4341 38.9143C32.5089 39.1388 32.4465 39.3009 32.247 39.4007L13.9912 51.1472L33.2197 41.1963C33.4192 41.0966 33.5938 41.1215 33.7434 41.2711C33.893 41.4208 33.918 41.5953 33.8182 41.7949L23.8673 61.0234L35.6139 42.7675C35.7136 42.6179 35.8383 42.5431 35.988 42.5431Z" fill="#070219" fill-opacity="0.5"/>
</svg>
