<svg width="75" height="76" viewBox="0 0 75 76" fill="none" xmlns="http://www.w3.org/2000/svg">
<path d="M37.4095 15.9075C31.1746 15.9075 25.2639 15.6082 19.6774 15.0096C13.7916 14.3612 9.12792 13.4634 5.68625 12.3162C1.89542 11.0692 0 9.64761 0 8.05147C0 6.45533 1.87048 5.03377 5.61143 3.78678C9.05311 2.68944 13.6919 1.81655 19.5278 1.16811C25.1641 0.519684 31.1247 0.195465 37.4095 0.195465C43.6943 0.195465 49.6549 0.519684 55.2913 1.16811C61.1272 1.81655 65.766 2.68944 69.2076 3.78678C72.9486 5.03377 74.8191 6.45533 74.8191 8.05147C74.8191 9.64761 72.9236 11.0692 69.1328 12.3162C65.6911 13.4634 61.0274 14.3612 55.1416 15.0096C49.5552 15.6082 43.6445 15.9075 37.4095 15.9075ZM37.4095 1.0933C30.5761 1.0933 24.2414 1.44245 18.4055 2.14076C13.0684 2.83907 8.81618 3.72443 5.64884 4.79684C2.4815 5.86925 0.897829 6.95412 0.897829 8.05147C0.897829 9.14882 2.4815 10.2337 5.64884 11.3061C8.81618 12.3785 13.0684 13.2639 18.4055 13.9622C24.2414 14.6605 30.5761 15.0096 37.4095 15.0096C44.243 15.0096 50.5777 14.6605 56.4136 13.9622C61.7507 13.2639 66.0029 12.3785 69.1702 11.3061C72.3376 10.2337 73.9212 9.14882 73.9212 8.05147C73.9212 6.95412 72.35 5.86925 69.2076 4.79684C66.0652 3.72443 61.8255 2.83907 56.4884 2.14076C50.6525 1.44245 44.2929 1.0933 37.4095 1.0933ZM37.4095 30.6468C31.1746 30.6468 25.2639 30.3475 19.6774 29.749C13.7916 29.1006 9.12792 28.2027 5.68625 27.0555C1.89542 25.8085 0 24.387 0 22.7908C0 21.1947 1.89542 19.7731 5.68625 18.5261C9.12792 17.3789 13.7916 16.506 19.6774 15.9075C25.2639 15.3089 31.1746 15.0096 37.4095 15.0096C43.6445 15.0096 49.5552 15.3089 55.1416 15.9075C61.0274 16.506 65.6911 17.3789 69.1328 18.5261C72.9236 19.7731 74.8191 21.1947 74.8191 22.7908C74.8191 24.387 72.9236 25.8085 69.1328 27.0555C65.6911 28.2027 61.0274 29.1006 55.1416 29.749C49.5552 30.3475 43.6445 30.6468 37.4095 30.6468ZM37.4095 15.9075C30.4264 15.9075 24.0419 16.2566 18.2558 16.9549C12.9188 17.6034 8.69148 18.4638 5.57402 19.5362C2.45656 20.6086 0.897829 21.7059 0.897829 22.8282C0.897829 23.9505 2.45656 25.0479 5.57402 26.1203C8.69148 27.1927 12.9188 28.0531 18.2558 28.7015C24.0419 29.3998 30.4264 29.749 37.4095 29.749C44.3926 29.749 50.7772 29.3998 56.5632 28.7015C61.9003 28.0531 66.1276 27.1927 69.245 26.1203C72.3625 25.0479 73.9212 23.9505 73.9212 22.8282C73.9212 21.7059 72.3625 20.6086 69.245 19.5362C66.1276 18.4638 61.9003 17.6034 56.5632 16.9549C50.7772 16.2566 44.3926 15.9075 37.4095 15.9075ZM37.4095 45.461C31.1247 45.461 25.1641 45.1368 19.5278 44.4883C13.6919 43.8399 9.05311 42.967 5.61143 41.8697C1.87048 40.6227 0 39.2011 0 37.605C0 36.0089 1.89542 34.5873 5.68625 33.3403C9.12792 32.1931 13.7916 31.2953 19.6774 30.6468C25.2639 30.0483 31.1746 29.749 37.4095 29.749C43.6445 29.749 49.5552 30.0483 55.1416 30.6468C61.0274 31.2953 65.6911 32.1931 69.1328 33.3403C72.9236 34.5873 74.8191 36.0089 74.8191 37.605C74.8191 39.2011 72.9486 40.6227 69.2076 41.8697C65.766 42.967 61.1272 43.8399 55.2913 44.4883C49.6549 45.1368 43.6943 45.461 37.4095 45.461ZM37.4095 30.6468C30.5761 30.6468 24.2414 30.996 18.4055 31.6943C13.0684 32.3926 8.81618 33.278 5.64884 34.3504C2.4815 35.4228 0.897829 36.5077 0.897829 37.605C0.897829 38.7023 2.4815 39.7872 5.64884 40.8596C8.81618 41.932 13.0684 42.8174 18.4055 43.5157C24.2414 44.214 30.5761 44.5632 37.4095 44.5632C44.243 44.5632 50.5777 44.214 56.4136 43.5157C61.7507 42.8174 66.0029 41.932 69.1702 40.8596C72.3376 39.7872 73.9212 38.7023 73.9212 37.605C73.9212 36.5077 72.35 35.4228 69.2076 34.3504C66.0652 33.278 61.8255 32.3926 56.4884 31.6943C50.6525 30.996 44.2929 30.6468 37.4095 30.6468ZM37.4095 60.2004C31.1746 60.2004 25.2639 59.9011 19.6774 59.3025C13.7916 58.704 9.12792 57.8311 5.68625 56.6839C1.89542 55.4369 0 54.0153 0 52.4192C0 50.823 1.89542 49.4015 5.68625 48.1545C9.12792 47.0073 13.7916 46.1094 19.6774 45.461C25.2639 44.8624 31.1746 44.5632 37.4095 44.5632C43.6445 44.5632 49.5552 44.8624 55.1416 45.461C61.0274 46.1094 65.6911 47.0073 69.1328 48.1545C72.9236 49.4015 74.8191 50.823 74.8191 52.4192C74.8191 54.0153 72.9236 55.4369 69.1328 56.6839C65.6911 57.8311 61.0274 58.704 55.1416 59.3025C49.5552 59.9011 43.6445 60.2004 37.4095 60.2004ZM37.4095 45.461C30.4264 45.461 24.0419 45.8102 18.2558 46.5085C12.9188 47.1569 8.69148 48.0173 5.57402 49.0897C2.45656 50.1621 0.897829 51.2595 0.897829 52.3818C0.897829 53.504 2.45656 54.6014 5.57402 55.6738C8.69148 56.7462 12.9188 57.6066 18.2558 58.2551C24.0419 58.9534 30.4264 59.3025 37.4095 59.3025C44.3926 59.3025 50.7772 58.9534 56.5632 58.2551C61.9003 57.6066 66.1276 56.7462 69.245 55.6738C72.3625 54.6014 73.9212 53.504 73.9212 52.3818C73.9212 51.2595 72.3625 50.1621 69.245 49.0897C66.1276 48.0173 61.9003 47.1569 56.5632 46.5085C50.7772 45.8102 44.3926 45.461 37.4095 45.461ZM37.4095 75.0145C31.1247 75.0145 25.1641 74.6903 19.5278 74.0419C13.6919 73.3934 9.05311 72.5206 5.61143 71.4232C1.87048 70.1762 0 68.7547 0 67.1585C0 65.5624 1.87048 64.1408 5.61143 62.8938C9.05311 61.7965 13.6919 60.9236 19.5278 60.2752C25.1641 59.6267 31.1247 59.3025 37.4095 59.3025C43.6943 59.3025 49.6549 59.6267 55.2913 60.2752C61.1272 60.9236 65.766 61.7965 69.2076 62.8938C72.9486 64.1408 74.8191 65.5624 74.8191 67.1585C74.8191 68.7547 72.9486 70.1762 69.2076 71.4232C65.766 72.5206 61.1272 73.3934 55.2913 74.0419C49.6549 74.6903 43.6943 75.0145 37.4095 75.0145ZM37.4095 60.2004C30.5761 60.2004 24.2414 60.5495 18.4055 61.2478C13.0684 61.9461 8.81618 62.8315 5.64884 63.9039C2.4815 64.9763 0.897829 66.0612 0.897829 67.1585C0.897829 68.2559 2.4815 69.3407 5.64884 70.4132C8.81618 71.4856 13.0684 72.3709 18.4055 73.0692C24.2414 73.7675 30.5761 74.1167 37.4095 74.1167C44.243 74.1167 50.5777 73.7675 56.4136 73.0692C61.7507 72.3709 66.0029 71.4856 69.1702 70.4132C72.3376 69.3407 73.9212 68.2559 73.9212 67.1585C73.9212 66.0612 72.35 64.9763 69.2076 63.9039C66.0652 62.8315 61.8255 61.9461 56.4884 61.2478C50.6525 60.5495 44.2929 60.2004 37.4095 60.2004Z" fill="#070219" fill-opacity="0.5"/>
</svg>
