<svg width="75" height="76" viewBox="0 0 75 76" fill="none" xmlns="http://www.w3.org/2000/svg">
<path d="M18.9292 38.0539C15.5374 38.0539 12.4075 37.2184 9.53943 35.5475C6.67137 33.8765 4.37691 31.6195 2.65608 28.7763C0.935238 25.9332 0.0498794 22.8158 0 19.424V0.644386C0 0.544624 0.0498794 0.444862 0.149638 0.345108C0.249397 0.245346 0.349156 0.195465 0.448914 0.195465H19.2285C22.6702 0.245346 25.825 1.13071 28.6931 2.85155C31.5612 4.57238 33.8432 6.8793 35.5391 9.77231C37.235 12.6653 38.058 15.8327 38.0081 19.2743C37.9582 22.716 37.0728 25.8709 35.352 28.7389C33.6312 31.607 31.3242 33.889 28.4312 35.5849C25.5382 37.2808 22.3709 38.1038 18.9292 38.0539ZM0.897829 1.0933V19.424C0.947708 22.6661 1.79566 25.6464 3.44168 28.3648C5.0877 31.0833 7.28239 33.2281 10.0258 34.7993C12.7691 36.3705 15.7619 37.1561 19.004 37.1561C22.2462 37.1561 25.239 36.3455 27.9823 34.7245C30.7257 33.1034 32.9079 30.9212 34.529 28.1778C36.1501 25.4344 36.9606 22.4417 36.9606 19.1995C36.9606 15.9574 36.175 12.9646 34.6038 10.2212C33.0326 7.47786 30.8878 5.28316 28.1694 3.63715C25.451 1.99113 22.4707 1.14317 19.2285 1.0933H0.897829ZM19.2285 75.0145H0.448914C0.349156 75.0145 0.249397 74.9646 0.149638 74.8649C0.0498794 74.7651 0 74.6654 0 74.5656V55.786C0.0498794 52.3942 0.935238 49.2643 2.65608 46.3962C4.37691 43.5282 6.68384 41.2711 9.57684 39.6251C12.4698 37.9791 15.6247 37.1561 19.0415 37.1561C22.4582 37.1561 25.6006 38.004 28.4687 39.6999C31.3367 41.3958 33.6187 43.6778 35.3146 46.5459C37.0105 49.4139 37.8584 52.5563 37.8584 55.9731C37.8584 59.3898 37.0354 62.5447 35.3894 65.4377C33.7434 68.3307 31.4864 70.6376 28.6183 72.3584C25.7502 74.0793 22.6203 74.9646 19.2285 75.0145ZM0.897829 74.1167H19.2285C22.4707 74.0668 25.451 73.2189 28.1694 71.5728C30.8878 69.9268 33.0326 67.7321 34.6038 64.9888C36.175 62.2454 36.9606 59.2526 36.9606 56.0105C36.9606 52.7683 36.1501 49.7756 34.529 47.0322C32.9079 44.2888 30.7257 42.1066 27.9823 40.4855C25.239 38.8645 22.2462 38.0539 19.004 38.0539C15.7619 38.0539 12.7691 38.8395 10.0258 40.4107C7.28239 41.9819 5.0877 44.1267 3.44168 46.8452C1.79566 49.5636 0.947708 52.5439 0.897829 55.786V74.1167ZM55.8898 38.0539C52.4482 38.1038 49.2808 37.2808 46.3878 35.5849C43.4948 33.889 41.1879 31.607 39.4671 28.7389C37.7462 25.8709 36.8609 22.716 36.811 19.2743C36.7611 15.8327 37.5841 12.6653 39.28 9.77231C40.9759 6.8793 43.2579 4.57238 46.1259 2.85155C48.994 1.13071 52.1489 0.245346 55.5906 0.195465H74.3701C74.4699 0.195465 74.5697 0.245346 74.6694 0.345108C74.7692 0.444862 74.8191 0.544624 74.8191 0.644386V19.424C74.7692 22.8158 73.8838 25.9332 72.163 28.7763C70.4421 31.6195 68.1477 33.8765 65.2796 35.5475C62.4116 37.2184 59.2816 38.0539 55.8898 38.0539ZM55.5906 1.0933C52.3484 1.14317 49.3681 1.99113 46.6497 3.63715C43.9313 5.28316 41.7864 7.47786 40.2152 10.2212C38.644 12.9646 37.8584 15.9574 37.8584 19.1995C37.8584 22.4417 38.669 25.4344 40.2901 28.1778C41.9111 30.9212 44.0934 33.1034 46.8367 34.7245C49.5801 36.3455 52.5729 37.1561 55.815 37.1561C59.0572 37.1561 62.0499 36.3705 64.7933 34.7993C67.5367 33.2281 69.7314 31.0833 71.3774 28.3648C73.0234 25.6464 73.8714 22.6661 73.9212 19.424V1.0933H55.5906ZM74.3701 75.0145H55.5906C52.1988 74.9646 49.0688 74.0793 46.2008 72.3584C43.3327 70.6376 41.0757 68.3307 39.4296 65.4377C37.7836 62.5447 36.9606 59.4023 36.9606 56.0105C36.9606 52.6187 37.8086 49.4888 39.5045 46.6207C41.2004 43.7526 43.4823 41.4706 46.3504 39.7747C49.2185 38.0788 52.3484 37.2184 55.7402 37.1935C59.132 37.1686 62.2744 37.9791 65.1674 39.6251C68.0604 41.2711 70.3798 43.5157 72.1256 46.3588C73.8714 49.202 74.7692 52.3194 74.8191 55.7112V74.5656C74.8191 74.6654 74.7692 74.7651 74.6694 74.8649C74.5697 74.9646 74.4699 75.0145 74.3701 75.0145ZM55.8898 38.0539C52.6477 38.004 49.63 38.7772 46.8367 40.3733C44.0435 41.9694 41.8363 44.1517 40.2152 46.92C38.5942 49.6883 37.7587 52.6935 37.7088 55.9357C37.6589 59.1778 38.4321 62.1955 40.0282 64.9888C41.6243 67.782 43.8066 69.9892 46.5749 71.6103C49.3432 73.2313 52.3484 74.0668 55.5906 74.1167H73.9212V55.786C73.8714 52.5439 73.0359 49.5636 71.4148 46.8452C69.7937 44.1267 67.6115 41.9819 64.8681 40.4107C62.1248 38.8395 59.132 38.0539 55.8898 38.0539Z" fill="#070219" fill-opacity="0.5"/>
</svg>
