<svg width="24" height="24" viewBox="0 0 24 24" fill="none" xmlns="http://www.w3.org/2000/svg">
<g clip-path="url(#clip0_3_13)">
<path d="M10.536 -5.5791e-06C8.632 -5.5791e-06 6.856 0.487994 5.208 1.46399C3.624 2.39199 2.368 3.65599 1.44 5.25599C0.48 6.88799 0 8.65999 0 10.572C0 12.484 0.48 14.264 1.44 15.912C2.384 17.496 3.648 18.752 5.232 19.68C6.88 20.64 8.66 21.12 10.572 21.12C12.484 21.12 14.256 20.64 15.888 19.68C17.488 18.736 18.752 17.472 19.68 15.888C20.64 14.24 21.12 12.46 21.12 10.548C21.12 8.63599 20.632 6.86399 19.656 5.23199C18.728 3.63199 17.464 2.36799 15.864 1.43999C14.232 0.479994 12.456 -5.5791e-06 10.536 -5.5791e-06ZM10.536 19.176C8.984 19.176 7.536 18.784 6.192 18C4.896 17.232 3.872 16.2 3.12 14.904C2.336 13.56 1.944 12.108 1.944 10.548C1.944 8.98799 2.336 7.53599 3.12 6.19199C3.888 4.89599 4.92 3.87199 6.216 3.11999C7.56 2.33599 9.012 1.94399 10.572 1.94399C12.132 1.94399 13.576 2.33599 14.904 3.11999C16.216 3.88799 17.248 4.91999 18 6.21599C18.784 7.55999 19.176 9.01199 19.176 10.572C19.176 12.132 18.784 13.576 18 14.904C17.232 16.2 16.192 17.232 14.88 18C13.552 18.784 12.104 19.176 10.536 19.176ZM23.688 22.344L18.096 16.728C17.904 16.536 17.672 16.44 17.4 16.44C17.128 16.44 16.896 16.536 16.704 16.728C16.512 16.92 16.416 17.152 16.416 17.424C16.416 17.696 16.512 17.928 16.704 18.12L22.296 23.712C22.488 23.872 22.708 23.944 22.956 23.928C23.204 23.912 23.416 23.816 23.592 23.64C23.768 23.464 23.864 23.252 23.88 23.004C23.896 22.756 23.832 22.536 23.688 22.344Z" fill="#FDFDFD"/>
<path d="M10.536 -5.5791e-06C8.632 -5.5791e-06 6.856 0.487994 5.208 1.46399C3.624 2.39199 2.368 3.65599 1.44 5.25599C0.48 6.88799 0 8.65999 0 10.572C0 12.484 0.48 14.264 1.44 15.912C2.384 17.496 3.648 18.752 5.232 19.68C6.88 20.64 8.66 21.12 10.572 21.12C12.484 21.12 14.256 20.64 15.888 19.68C17.488 18.736 18.752 17.472 19.68 15.888C20.64 14.24 21.12 12.46 21.12 10.548C21.12 8.63599 20.632 6.86399 19.656 5.23199C18.728 3.63199 17.464 2.36799 15.864 1.43999C14.232 0.479994 12.456 -5.5791e-06 10.536 -5.5791e-06ZM10.536 19.176C8.984 19.176 7.536 18.784 6.192 18C4.896 17.232 3.872 16.2 3.12 14.904C2.336 13.56 1.944 12.108 1.944 10.548C1.944 8.98799 2.336 7.53599 3.12 6.19199C3.888 4.89599 4.92 3.87199 6.216 3.11999C7.56 2.33599 9.012 1.94399 10.572 1.94399C12.132 1.94399 13.576 2.33599 14.904 3.11999C16.216 3.88799 17.248 4.91999 18 6.21599C18.784 7.55999 19.176 9.01199 19.176 10.572C19.176 12.132 18.784 13.576 18 14.904C17.232 16.2 16.192 17.232 14.88 18C13.552 18.784 12.104 19.176 10.536 19.176ZM23.688 22.344L18.096 16.728C17.904 16.536 17.672 16.44 17.4 16.44C17.128 16.44 16.896 16.536 16.704 16.728C16.512 16.92 16.416 17.152 16.416 17.424C16.416 17.696 16.512 17.928 16.704 18.12L22.296 23.712C22.488 23.872 22.708 23.944 22.956 23.928C23.204 23.912 23.416 23.816 23.592 23.64C23.768 23.464 23.864 23.252 23.88 23.004C23.896 22.756 23.832 22.536 23.688 22.344Z" fill="#FDFDFD"/>
<path d="M10.536 -5.5791e-06C8.632 -5.5791e-06 6.856 0.487994 5.208 1.46399C3.624 2.39199 2.368 3.65599 1.44 5.25599C0.48 6.88799 0 8.65999 0 10.572C0 12.484 0.48 14.264 1.44 15.912C2.384 17.496 3.648 18.752 5.232 19.68C6.88 20.64 8.66 21.12 10.572 21.12C12.484 21.12 14.256 20.64 15.888 19.68C17.488 18.736 18.752 17.472 19.68 15.888C20.64 14.24 21.12 12.46 21.12 10.548C21.12 8.63599 20.632 6.86399 19.656 5.23199C18.728 3.63199 17.464 2.36799 15.864 1.43999C14.232 0.479994 12.456 -5.5791e-06 10.536 -5.5791e-06ZM10.536 19.176C8.984 19.176 7.536 18.784 6.192 18C4.896 17.232 3.872 16.2 3.12 14.904C2.336 13.56 1.944 12.108 1.944 10.548C1.944 8.98799 2.336 7.53599 3.12 6.19199C3.888 4.89599 4.92 3.87199 6.216 3.11999C7.56 2.33599 9.012 1.94399 10.572 1.94399C12.132 1.94399 13.576 2.33599 14.904 3.11999C16.216 3.88799 17.248 4.91999 18 6.21599C18.784 7.55999 19.176 9.01199 19.176 10.572C19.176 12.132 18.784 13.576 18 14.904C17.232 16.2 16.192 17.232 14.88 18C13.552 18.784 12.104 19.176 10.536 19.176ZM23.688 22.344L18.096 16.728C17.904 16.536 17.672 16.44 17.4 16.44C17.128 16.44 16.896 16.536 16.704 16.728C16.512 16.92 16.416 17.152 16.416 17.424C16.416 17.696 16.512 17.928 16.704 18.12L22.296 23.712C22.488 23.872 22.708 23.944 22.956 23.928C23.204 23.912 23.416 23.816 23.592 23.64C23.768 23.464 23.864 23.252 23.88 23.004C23.896 22.756 23.832 22.536 23.688 22.344Z" fill="#FDFDFD"/>
<path d="M10.536 -5.5791e-06C8.632 -5.5791e-06 6.856 0.487994 5.208 1.46399C3.624 2.39199 2.368 3.65599 1.44 5.25599C0.48 6.88799 0 8.65999 0 10.572C0 12.484 0.48 14.264 1.44 15.912C2.384 17.496 3.648 18.752 5.232 19.68C6.88 20.64 8.66 21.12 10.572 21.12C12.484 21.12 14.256 20.64 15.888 19.68C17.488 18.736 18.752 17.472 19.68 15.888C20.64 14.24 21.12 12.46 21.12 10.548C21.12 8.63599 20.632 6.86399 19.656 5.23199C18.728 3.63199 17.464 2.36799 15.864 1.43999C14.232 0.479994 12.456 -5.5791e-06 10.536 -5.5791e-06ZM10.536 19.176C8.984 19.176 7.536 18.784 6.192 18C4.896 17.232 3.872 16.2 3.12 14.904C2.336 13.56 1.944 12.108 1.944 10.548C1.944 8.98799 2.336 7.53599 3.12 6.19199C3.888 4.89599 4.92 3.87199 6.216 3.11999C7.56 2.33599 9.012 1.94399 10.572 1.94399C12.132 1.94399 13.576 2.33599 14.904 3.11999C16.216 3.88799 17.248 4.91999 18 6.21599C18.784 7.55999 19.176 9.01199 19.176 10.572C19.176 12.132 18.784 13.576 18 14.904C17.232 16.2 16.192 17.232 14.88 18C13.552 18.784 12.104 19.176 10.536 19.176ZM23.688 22.344L18.096 16.728C17.904 16.536 17.672 16.44 17.4 16.44C17.128 16.44 16.896 16.536 16.704 16.728C16.512 16.92 16.416 17.152 16.416 17.424C16.416 17.696 16.512 17.928 16.704 18.12L22.296 23.712C22.488 23.872 22.708 23.944 22.956 23.928C23.204 23.912 23.416 23.816 23.592 23.64C23.768 23.464 23.864 23.252 23.88 23.004C23.896 22.756 23.832 22.536 23.688 22.344Z" fill="#FDFDFD"/>
</g>
<defs>
<clipPath id="clip0_3_13">
<rect width="24" height="24" fill="white" transform="matrix(1 0 0 -1 0 24)"/>
</clipPath>
</defs>
</svg>
