<svg width="14" height="12" viewBox="0 0 14 12" fill="none" xmlns="http://www.w3.org/2000/svg">
<path d="M13.6402 0.118187C13.5682 0.0541874 13.4842 0.0161874 13.3882 0.0041874C13.2922 -0.0078126 13.2002 0.0061874 13.1122 0.0461874L0.48816 5.54219C0.32816 5.61419 0.20416 5.72419 0.11616 5.87219C0.02816 6.02019 -0.00984 6.18019 0.00216 6.35219C0.01416 6.52419 0.07216 6.67819 0.17616 6.81419C0.28016 6.95019 0.41616 7.04219 0.58416 7.09019L3.69216 8.02619C3.78016 8.07419 3.87616 8.09219 3.98016 8.08019C4.08416 8.06819 4.17616 8.03019 4.25616 7.96619C4.33616 7.90219 4.39016 7.82019 4.41816 7.72019C4.44616 7.62019 4.44616 7.52019 4.41816 7.42019C4.39016 7.32019 4.33816 7.23819 4.26216 7.17419C4.18616 7.11019 4.09616 7.07019 3.99216 7.05419L1.37616 6.26219L11.2402 1.96619L5.38416 7.82219L5.36016 7.85819C5.36016 7.86619 5.35816 7.87019 5.35416 7.87019C5.35016 7.87019 5.34816 7.87419 5.34816 7.88219L5.32416 7.91819C5.32416 7.92619 5.32016 7.93419 5.31216 7.94219L5.30016 7.95419C5.30016 7.97019 5.29616 7.98219 5.28816 7.99019C5.28016 7.99819 5.28016 8.00219 5.28816 8.00219L5.27616 8.05019V8.15819L5.43216 11.0622C5.44816 11.2222 5.50216 11.3642 5.59416 11.4882C5.68616 11.6122 5.80616 11.7002 5.95416 11.7522C6.10216 11.8042 6.25416 11.8102 6.41016 11.7702C6.56616 11.7302 6.69616 11.6542 6.80016 11.5422L7.96416 10.2582L10.2682 11.8422C10.3802 11.9222 10.5042 11.9702 10.6402 11.9862C10.7762 12.0022 10.9082 11.9862 11.0362 11.9382C11.1642 11.8902 11.2742 11.8122 11.3662 11.7042C11.4582 11.5962 11.5162 11.4742 11.5402 11.3382L13.8082 0.610187C13.8242 0.522187 13.8182 0.434187 13.7902 0.346187C13.7622 0.258187 13.7122 0.182187 13.6402 0.118187ZM6.42816 10.4502L6.35616 9.14219L7.12416 9.68219L6.42816 10.4502ZM10.6042 10.8462L6.58416 8.06219L12.4282 2.21819L10.6042 10.8462Z" fill="#FDFDFD"/>
</svg>
