<svg width="75" height="76" viewBox="0 0 75 76" fill="none" xmlns="http://www.w3.org/2000/svg">
<path d="M37.4095 75.0145C37.3098 75.0145 37.21 74.9646 37.1103 74.8649C37.0105 74.7651 36.9606 74.6654 36.9606 74.5656C36.9606 66.7346 35.5515 60.1006 32.7333 54.6637C29.9152 49.2269 25.7876 45.0994 20.3508 42.2812C14.9139 39.463 8.27998 38.0539 0.448914 38.0539C0.349156 38.0539 0.249397 38.004 0.149638 37.9043C0.0498794 37.8045 0 37.7048 0 37.605C0 37.5052 0.0498794 37.4055 0.149638 37.3057C0.249397 37.206 0.349156 37.1561 0.448914 37.1561C8.27998 37.1561 14.9139 35.747 20.3508 32.9288C25.7876 30.1106 29.9152 25.9831 32.7333 20.5463C35.5515 15.1094 36.9606 8.47544 36.9606 0.644386C36.9606 0.544624 37.0105 0.444862 37.1103 0.345108C37.21 0.245346 37.3098 0.195465 37.4095 0.195465C37.5093 0.195465 37.609 0.245346 37.7088 0.345108C37.8086 0.444862 37.8584 0.544624 37.8584 0.644386C37.8584 8.47544 39.2675 15.1094 42.0857 20.5463C44.9039 25.9831 49.0314 30.1106 54.4683 32.9288C59.9051 35.747 66.5391 37.1561 74.3701 37.1561C74.4699 37.1561 74.5697 37.206 74.6694 37.3057C74.7692 37.4055 74.8191 37.5052 74.8191 37.605C74.8191 37.7048 74.7692 37.8045 74.6694 37.9043C74.5697 38.004 74.4699 38.0539 74.3701 38.0539C66.5391 38.0539 59.9051 39.463 54.4683 42.2812C49.0314 45.0994 44.9039 49.2269 42.0857 54.6637C39.2675 60.1006 37.8584 66.7346 37.8584 74.5656C37.8584 74.6654 37.8086 74.7651 37.7088 74.8649C37.609 74.9646 37.5093 75.0145 37.4095 75.0145ZM7.70636 37.605C16.1859 38.7522 22.9819 41.8697 28.0946 46.9574C33.2072 52.0451 36.3122 58.8536 37.4095 67.383C38.5568 58.8536 41.6742 52.0326 46.7619 46.92C51.8496 41.8073 58.6581 38.7023 67.1875 37.605C58.6581 36.4578 51.8496 33.3403 46.7619 28.2526C41.6742 23.1649 38.5568 16.3564 37.4095 7.82701C36.3122 16.3564 33.2072 23.1649 28.0946 28.2526C22.9819 33.3403 16.1859 36.4578 7.70636 37.605Z" fill="#070219" fill-opacity="0.5"/>
</svg>
