<svg width="17" height="17" viewBox="0 0 17 17" fill="none" xmlns="http://www.w3.org/2000/svg">
<path d="M8.01 -0.000468731C6.92064 -0.000468731 5.87934 0.207791 4.8861 0.624311C3.93558 1.03015 3.08919 1.6042 2.34693 2.34646C1.60467 3.08872 1.03062 3.93511 0.62478 4.88563C0.20826 5.87887 0 6.92017 0 8.00953C0 9.09889 0.20826 10.1402 0.62478 11.1334C1.03062 12.084 1.60467 12.9303 2.34693 13.6726C3.08919 14.4149 3.93558 14.9889 4.8861 15.3948C5.87934 15.8113 6.92064 16.0195 8.01 16.0195C9.09936 16.0195 10.1407 15.8113 11.1339 15.3948C12.0844 14.9889 12.9308 14.4149 13.6731 13.6726C14.4153 12.9303 14.9894 12.084 15.3952 11.1334C15.8117 10.1402 16.02 9.09889 16.02 8.00953C16.02 6.92017 15.8064 5.88421 15.3792 4.90165C14.9734 3.94045 14.402 3.09139 13.6651 2.35447C12.9281 1.61755 12.0791 1.04617 11.1179 0.640331C10.1353 0.213131 9.09936 -0.000468731 8.01 -0.000468731ZM13.3126 3.70015C13.8039 4.29823 14.1804 4.96306 14.442 5.69464C14.7037 6.42622 14.8399 7.18183 14.8505 7.96147C13.2806 7.65175 11.6946 7.57699 10.0926 7.73719L9.9324 7.38475C9.85764 7.19251 9.73482 6.91483 9.56394 6.55171L9.48384 6.39151C10.2314 6.11383 10.9283 5.74804 11.5744 5.29414C12.2206 4.84024 12.8 4.30891 13.3126 3.70015ZM8.01 1.18501C8.84304 1.18501 9.64938 1.33186 10.429 1.62556C11.2087 1.91926 11.9135 2.34379 12.5437 2.89915C12.0737 3.47587 11.5344 3.97249 10.9256 4.38901C10.3169 4.80553 9.66006 5.13127 8.95518 5.36623C8.1969 3.97783 7.34784 2.64283 6.408 1.36123C6.93132 1.24375 7.46532 1.18501 8.01 1.18501ZM5.09436 1.82581C6.01284 3.09673 6.8619 4.41571 7.64154 5.78275C5.56962 6.32743 3.46032 6.60511 1.31364 6.61579C1.53792 5.56915 1.98114 4.62397 2.6433 3.78025C3.30546 2.93653 4.12248 2.28505 5.09436 1.82581ZM1.16946 8.02555V7.81729C3.56178 7.82797 5.90604 7.50223 8.20224 6.84007C8.45856 7.35271 8.64546 7.73719 8.76294 7.99351L8.4906 8.07361C7.33716 8.49013 6.28251 9.08554 5.32665 9.85984C4.37079 10.6341 3.57246 11.5446 2.93166 12.5913C2.36562 11.9611 1.93041 11.2536 1.62603 10.4686C1.32165 9.68362 1.16946 8.86927 1.16946 8.02555ZM8.01 14.8661C7.25172 14.8661 6.51213 14.7433 5.79123 14.4976C5.07033 14.252 4.41084 13.8942 3.81276 13.4243C4.40016 12.399 5.15844 11.5179 6.0876 10.781C7.01676 10.0441 8.04738 9.49939 9.17946 9.14695L9.22752 9.13093C9.879 10.8184 10.3649 12.5485 10.6853 14.3214C9.83094 14.6845 8.93916 14.8661 8.01 14.8661ZM11.8388 13.6966C11.5397 12.0306 11.0965 10.4019 10.5091 8.81053C11.9509 8.59693 13.3714 8.69305 14.7704 9.09889C14.6209 10.0387 14.2925 10.9065 13.7852 11.7021C13.2779 12.4978 12.6291 13.1626 11.8388 13.6966Z" fill="#FDFDFD"/>
</svg>
