<svg width="17" height="17" viewBox="0 0 17 17" fill="none" xmlns="http://www.w3.org/2000/svg">
<path d="M11.0218 -0.000468731H5.01426C4.10646 -0.000468731 3.26274 0.229151 2.4831 0.688391C1.72482 1.12627 1.12674 1.72435 0.68886 2.48263C0.22962 3.25159 0 4.08997 0 4.99777V11.0053C0 11.9131 0.22962 12.7568 0.68886 13.5364C1.12674 14.2947 1.72482 14.8928 2.4831 15.3307C3.26274 15.7899 4.10646 16.0195 5.01426 16.0195H11.0218C11.9296 16.0195 12.7679 15.7899 13.5369 15.3307C14.2952 14.8928 14.8933 14.2947 15.3311 13.5364C15.7904 12.7568 16.02 11.9131 16.02 11.0053V4.99777C16.02 4.08997 15.7904 3.25159 15.3311 2.48263C14.8933 1.72435 14.2952 1.12627 13.5369 0.688391C12.7679 0.229151 11.9296 -0.000468731 11.0218 -0.000468731ZM14.5141 11.0053C14.5141 11.6354 14.3566 12.2201 14.0415 12.7595C13.7265 13.2988 13.3019 13.726 12.7679 14.0411C12.2339 14.3561 11.6519 14.5137 11.0218 14.5137H5.01426C4.37346 14.5137 3.78606 14.3561 3.25206 14.0411C2.71806 13.726 2.29353 13.3015 1.97847 12.7675C1.66341 12.2335 1.50588 11.6461 1.50588 11.0053V4.99777C1.50588 4.36765 1.66341 3.78559 1.97847 3.25159C2.29353 2.71759 2.72073 2.29306 3.26007 1.978C3.79941 1.66294 4.38414 1.50541 5.01426 1.50541H11.0218C11.6519 1.50541 12.2339 1.66294 12.7679 1.978C13.3019 2.29306 13.7265 2.71759 14.0415 3.25159C14.3566 3.78559 14.5141 4.36765 14.5141 4.99777V11.0053ZM8.01 4.00453C7.28376 4.00453 6.61359 4.18342 5.99949 4.5412C5.38539 4.89898 4.89945 5.38492 4.54167 5.99902C4.18389 6.61312 4.005 7.28329 4.005 8.00953C4.005 8.73577 4.18389 9.40594 4.54167 10.02C4.89945 10.6341 5.38539 11.1201 5.99949 11.4779C6.61359 11.8356 7.28376 12.0145 8.01 12.0145C8.73624 12.0145 9.40641 11.8356 10.0205 11.4779C10.6346 11.1201 11.1205 10.6341 11.4783 10.02C11.8361 9.40594 12.015 8.73577 12.015 8.00953C12.015 7.28329 11.8361 6.61312 11.4783 5.99902C11.1205 5.38492 10.6346 4.89898 10.0205 4.5412C9.40641 4.18342 8.73624 4.00453 8.01 4.00453ZM8.01 10.5087C7.56144 10.5087 7.14492 10.3965 6.76044 10.1722C6.37596 9.94795 6.07158 9.64357 5.8473 9.25909C5.62302 8.87461 5.51088 8.45809 5.51088 8.00953C5.51088 7.56097 5.62302 7.14445 5.8473 6.75997C6.07158 6.37549 6.37596 6.07111 6.76044 5.84683C7.14492 5.62255 7.56144 5.51041 8.01 5.51041C8.45856 5.51041 8.87508 5.62255 9.25956 5.84683C9.64404 6.07111 9.94842 6.37549 10.1727 6.75997C10.397 7.14445 10.5091 7.56097 10.5091 8.00953C10.5091 8.45809 10.397 8.87461 10.1727 9.25909C9.94842 9.64357 9.64404 9.94795 9.25956 10.1722C8.87508 10.3965 8.45856 10.5087 8.01 10.5087ZM12.3194 3.17149C12.4689 3.17149 12.5944 3.22222 12.6958 3.32368C12.7973 3.42514 12.848 3.55063 12.848 3.70015C12.848 3.84967 12.7946 3.97783 12.6878 4.08463C12.581 4.19143 12.4555 4.24483 12.3114 4.24483C12.1672 4.24483 12.0417 4.19143 11.9349 4.08463C11.8281 3.97783 11.7747 3.84967 11.7747 3.70015C11.7747 3.55063 11.8281 3.42514 11.9349 3.32368C12.0417 3.22222 12.1699 3.17149 12.3194 3.17149Z" fill="#FDFDFD"/>
</svg>
