<svg width="21" height="15" viewBox="0 0 21 15" fill="none" xmlns="http://www.w3.org/2000/svg">
<path d="M18.1261 6.26712C18.5956 6.26712 19.0299 6.1474 19.4289 5.90797C19.828 5.66855 20.1355 5.34227 20.3514 4.92914C19.9758 5.10753 19.5815 5.22255 19.1684 5.27419C18.7552 5.32584 18.3468 5.30471 17.943 5.21082C17.9149 5.0512 17.8773 4.89158 17.8304 4.73196C17.6801 4.0747 17.3914 3.48552 16.9642 2.96441C16.537 2.44331 16.0206 2.03956 15.415 1.75319C14.8093 1.46681 14.1685 1.32832 13.4925 1.33771L13.9714 1.1687C13.9995 1.15931 14.0793 1.13584 14.2108 1.09828C14.5488 1.01378 14.7929 0.938662 14.9431 0.872937C15.206 0.741486 15.307 0.602993 15.246 0.457458C15.1849 0.311923 14.9525 0.290797 14.5488 0.39408C14.3235 0.450416 13.9901 0.558393 13.5488 0.718012L13.2531 0.830685C13.5347 0.727402 13.7554 0.624119 13.915 0.520836C14.1685 0.361217 14.3094 0.187514 14.3375 -0.000272794C13.7272 0.0936207 13.192 0.347133 12.732 0.760264C12.901 0.591256 13.0042 0.389385 13.0418 0.154651C12.3376 0.595951 11.6991 1.29546 11.1264 2.25317C10.7226 2.94798 10.2954 3.89161 9.84473 5.08406C9.38465 4.6052 8.86824 4.19207 8.29549 3.84467C6.59602 2.95268 4.8449 2.18275 3.04215 1.53489C3.04215 2.09825 3.20177 2.61701 3.52101 3.09117C3.84024 3.56533 4.26276 3.9057 4.78857 4.11226C4.36605 4.09348 3.94822 4.14043 3.53509 4.2531C3.63837 4.75074 3.84963 5.15917 4.16887 5.47841C4.54444 5.85399 5.09842 6.12628 5.83079 6.29529C5.56788 6.2859 5.31437 6.32815 5.07025 6.42204C4.82613 6.51593 4.61017 6.65678 4.42238 6.84456C4.66651 7.30464 5.02095 7.64735 5.48573 7.8727C5.9505 8.09804 6.4364 8.16377 6.94342 8.06987C6.57724 8.22949 6.33312 8.42197 6.21105 8.64732C6.09838 8.85388 6.09369 9.0581 6.19697 9.25997C6.30025 9.46184 6.47865 9.61677 6.73216 9.72474C6.98568 9.83272 7.26736 9.86324 7.5772 9.81629C6.90117 10.5111 6.10308 10.99 5.18292 11.2529C4.28154 11.5158 3.37547 11.5439 2.4647 11.3374C1.53516 11.1214 0.71359 10.6848 0 10.0276C0.995271 11.3796 2.22528 12.4031 3.69001 13.0979C5.04208 13.7363 6.50682 14.065 8.08423 14.0837C9.58652 14.0931 11.0372 13.8208 12.4362 13.2669C13.8352 12.7129 15.0183 11.943 15.9854 10.9571C17.0088 9.91488 17.6801 8.73652 17.9994 7.42201C18.4595 7.45956 18.9031 7.39619 19.3303 7.23187C19.7575 7.06756 20.1308 6.82109 20.45 6.49246C19.6613 6.60513 18.8867 6.53002 18.1261 6.26712Z" fill="#FDFDFD"/>
</svg>
